<?xml version="1.0" encoding="UTF-8"?>
<svg id="Layer_2" data-name="Layer 2" xmlns="http://www.w3.org/2000/svg" viewBox="0 0 422.04 384.35">
  <defs>
    <style>
      .cls-1, .cls-2, .cls-3 {
        fill: none;
        stroke: #000;
        stroke-miterlimit: 10;
        stroke-width: 2px;
      }

      .cls-2, .cls-3 {
        stroke-linecap: round;
      }

      .cls-3 {
        stroke-dasharray: 0 0 12.07 12.07;
      }
    </style>
  </defs>
  <g id="Layer_4" data-name="Layer 4">
    <g>
      <rect class="cls-1" x="1" y="1" width="218.04" height="30.6" rx="3.06" ry="3.06"/>
      <rect class="cls-1" x="1" y="61.9" width="218.04" height="30.6" rx="3.06" ry="3.06"/>
      <rect class="cls-1" x="1" y="122.8" width="218.04" height="30.6" rx="3.06" ry="3.06"/>
      <path class="cls-1" d="M420.07,360.75c1.29,1.29,1.29,3.38,0,4.66l-16.97,16.97c-1.29,1.29-3.38,1.29-4.67,0l-76.36-76.36-76.37,76.36c-1.29,1.29-3.38,1.29-4.67,0l-16.97-16.97c-1.29-1.28-1.29-3.37,0-4.66l76.37-76.37-76.37-76.37c-1.29-1.29-1.29-3.38,0-4.66l16.97-16.97c1.29-1.29,3.38-1.29,4.67,0l76.37,76.37,76.36-76.37c1.29-1.29,3.38-1.29,4.67,0l16.97,16.97c1.29,1.28,1.29,3.37,0,4.66l-76.37,76.37,76.37,76.37Z"/>
      <g>
        <path class="cls-2" d="M46.67,170.05c-1.1,1.67-2.17,3.36-3.21,5.07"/>
        <path class="cls-3" d="M37.57,185.65c-13.12,25.78-18.55,55.02-7.06,83.07,11.68,28.52,39.01,50.04,69.47,54.72,25.09,3.85,47.72-6.65,57.98-30.47,4.84-11.23,6.33-23.69,5.73-35.91-.74-14.96-6.09-31.66-19.75-37.8-12.27-5.51-27.88.37-35.14,11.7-7.26,11.33-6.71,26.6-.47,38.52s17.5,20.67,29.86,25.99c9.94,4.28,32.22,7.35,48.39,8.62"/>
        <path class="cls-2" d="M192.6,304.5c2.23.12,4.25.2,5.99.23"/>
      </g>
      <path class="cls-1" d="M200.8,304.53c-.02-1.84-17.56-26.38-15.98-25.45l20.47,12.14,20.75,11.66c1.6.9,1.6,3.21,0,4.11l-20.75,11.66-20.47,12.14c-1.58.94,15.88-23.83,15.9-25.67l.08-.59Z"/>
    </g>
  </g>
</svg>