<?xml version="1.0" encoding="UTF-8"?>
<svg id="Layer_2" data-name="Layer 2" xmlns="http://www.w3.org/2000/svg" viewBox="0 0 482.64 448.92">
  <defs>
    <style>
      .cls-1 {
        fill: none;
        stroke: #000;
        stroke-linecap: round;
        stroke-linejoin: round;
        stroke-width: 2px;
      }
    </style>
  </defs>
  <g id="Chair">
    <g>
      <g>
        <path class="cls-1" d="M366.1,147.91s1.5.6,1.8,18c.3,17.4-5.4,91.5-6.9,106.8s-27,142.8-27,142.8c0,0,19.8,9.6,30.6,12.6s36,1.2,41.1.6,10.8-5.1,19.8-.6,26.1-6.9,37.5-15.9,12-14.1,15.6-24.9,3-20.1,3-20.1l-51.3-151.5s-16.8-33-21.3-42.6-11.7-9-11.7-9c-2.7-6-10.2-16.8-12.6-19.5s-.9-7.8-.9-7.8c0,0,2.4-36.9.9-47.4s3.3-31.8-9-40.2-32.4-10.5-43.8-11.1-20.4,3-24.9-1.2-12.3-20.7-15.6-22.5-16.5-1.5-23.4-1.8-10.2-3.9-17.1-8.1-17.1-3.6-21-3.3-17.4,4.5-29.7,1.8-39.9-.3-45,1.8-6,8.4-15.9,18.6c-9.9,10.2-10.2,6.9-10.2,6.9-20.4-2.4-38.4,13.2-54.9,35.7s-12.3,87.6-9.9,95.1-.3,13.8-.3,13.8c0,0-8.4,19.2-16.2,33s-5.4,15.3-14.1,29.4,5.4,135.3,5.4,135.3c0,0,18,20.1,26.7,22.8s-6.3,16.5-6.3,16.5c0,0-21.6,12-25.2,21.6"/>
        <path class="cls-1" d="M331.6,169.21s30.3,51.3,32.4,58.8"/>
        <path class="cls-1" d="M312.7,238.81s3.9-6,3-18.9-7.8-47.7,12.6-60.6c20.4-12.9,29.1-21,42.3-14.7"/>
        <path class="cls-1" d="M289,177.31c6,3.3,14.4,8.1,18.3-11.7s4.5-25.5,11.4-30.3c6.9-4.8,33.9-5.4,40.8-5.1s10.8-3.3,13.5-.3"/>
        <path class="cls-1" d="M333.4,38.41s-24.3,5.4-24,15.3c.3,9.9.9,46.2,1.5,61.8.6,15.6-1.2,23.4-1.2,23.4"/>
        <path class="cls-1" d="M129.1,30.31s12.9,9,12.9,19.2-4.2,43.5.6,56.4c4.8,12.9,9,17.7,8.4,21.9"/>
        <path class="cls-1" d="M109,96.01s22.2,26.4,30,25.5,12.6,9.3,14.7,14.1-.9,17.4-.9,19.5-9.6,89.4-9.6,89.4c0,0-2.7,56.7,1.8,69.3s10.8,20.25,13.95,17.55,4.05-5.85,4.05-5.85"/>
        <path class="cls-1" d="M31.3,266.41c-.9,15.6-30.3,116.1-30.3,116.1,0,0,18.9,45.3,29.1,53.1s29.4,1.2,36.3,2.1c6.9.9,5.1,9,12.6,9.6s27.9,1.8,36.9-2.7,12.6-8.1,16.8-5.1,2.7,5.7,6.9,5.4,15-.3,24.3-6.9,32.4-7.2,45.6-6.9,49.5,6.3,65.7,2.4,30.3.6,36.9-9.9,7.2-11.4,8.7-11.7,13.2,0,13.2,0"/>
        <path class="cls-1" d="M57.7,188.26s13.85-28.45,31.95-29.7c45.45-3.15,41.4,40.95,42.75,42.75"/>
        <path class="cls-1" d="M144.55,229.66s4.95-28.8,23.4-31.5c18.45-2.7,22.05,1.8,36-3.15s17.55-10.8,29.7-5.85c12.15,4.95,35.55,18.9,49.05,24.75s40.05,39.15,50.4,43.65l10.35,4.5"/>
        <path class="cls-1" d="M284.5,229.66s17.55,20.7,25.65,34.2,18.45,28.8,17.55,49.95"/>
        <path class="cls-1" d="M342.1,270.61s-10.35,2.25-8.1,6.75,12.6,36.45,12.6,36.45"/>
        <path class="cls-1" d="M352.45,321.46s-9.9,3.15-25.2,6.3c-15.3,3.15-50.4-9-53.55-11.25s-8.55-8.1-8.55-8.1"/>
        <path class="cls-1" d="M232.75,271.51s5.4,75.15,8.55,82.35,42.75,66.15,46.35,77.4"/>
        <path class="cls-1" d="M320.8,411.91s-25.95-18.9-32.7-28.8c-6.75-9.9-25.2-48.15-25.2-48.15"/>
        <path class="cls-1" d="M309.7,178.81s-3.15-1.35-3.15,2.25.45,13.05-.9,13.95-11.7,3.15-24.3-.9c-12.6-4.05-56.17-6.86-56.17-6.86"/>
      </g>
      <path class="cls-1" d="M334,415.51s19.8,9.6,30.6,12.6c10.8,3,36,1.2,41.1.6,5.1-.6,10.8-5.1,19.8-.6s26.1-6.9,37.5-15.9c11.4-9,12-14.1,15.6-24.9,3.6-10.8,3-20.1,3-20.1l-51.3-151.5s-16.8-33-21.3-42.6c-4.5-9.6-11.7-9-11.7-9-2.7-6-10.2-16.8-12.6-19.5-2.4-2.7-.9-7.8-.9-7.8,0,0,2.4-36.9.9-47.4s3.3-31.8-9-40.2-32.4-10.5-43.8-11.1c-11.4-.6-20.4,3-24.9-1.2s-12.3-20.7-15.6-22.5-16.5-1.5-23.4-1.8c-6.9-.3-10.2-3.9-17.1-8.1-6.9-4.2-17.1-3.6-21-3.3-3.9.3-17.4,4.5-29.7,1.8s-39.9-.3-45,1.8c-5.1,2.1-6,8.4-15.9,18.6-6.05,6.24-8.52,7.43-9.52,7.41-.47-.01-.62-.29-.66-.43l-.02-.08c-20.4-2.4-38.4,13.2-54.9,35.7s-12.3,87.6-9.9,95.1c2.4,7.5-.3,13.8-.3,13.8,0,0-1.96,4.48-4.86,10.65-.02.02-.03.04-.04.07-.4.86-.82,1.75-1.25,2.66-2.93,6.15-6.55,13.43-10.05,19.62-7.8,13.8-5.4,15.3-14.1,29.4-2.44,3.96-3.09,16.37-2.76,32.17-3.5,22.64-29.94,113.03-29.94,113.03,0,0,18.9,45.3,29.1,53.1,10.2,7.8,29.4,1.2,36.3,2.1,6.9.9,5.1,9,12.6,9.6,7.5.6,27.9,1.8,36.9-2.7s12.6-8.1,16.8-5.1,2.7,5.7,6.9,5.4c4.2-.3,15-.3,24.3-6.9,9.3-6.6,32.4-7.2,45.6-6.9,13.2.3,49.5,6.3,65.7,2.4,16.2-3.9,30.3.6,36.9-9.9,6.6-10.5,7.2-11.4,8.7-11.7s13.2,0,13.2,0v3.6Z"/>
    </g>
  </g>
</svg>