<?xml version="1.0" encoding="UTF-8"?>
<svg id="Layer_2" data-name="Layer 2" xmlns="http://www.w3.org/2000/svg" viewBox="0 0 456.5 456.5">
  <defs>
    <style>
      .cls-1 {
        fill: none;
        stroke: #000;
        stroke-linecap: round;
        stroke-linejoin: round;
        stroke-width: 2px;
      }
    </style>
  </defs>
  <g id="Layer_4" data-name="Layer 4">
    <g>
      <circle class="cls-1" cx="228.25" cy="228.25" r="227.25"/>
      <path class="cls-1" d="M121.3,173.8s-3.6,7.2-.45,10.35"/>
      <path class="cls-1" d="M128.05,172.9s7.2,4.95.9,11.7"/>
      <path class="cls-1" d="M89.2,77.05c-2.88,2.47-11.63,12.55-8.66,17.09,1.69,2.59,4.21.12,5.96-1.79,0,0-.9,3.6,4.05,1.8,4.84-1.76,8.94-8.44,11.93-12.28,7.11-9.16,11.62-21.67,24.01-24.36,1.95-.42,4.36-.91,6.34-.36,1.97.54,2.83,2.74,5.04,2.71,1.65-.02,4.14-2.42,5.42-3.32,4.37-3.08,8.46-7.02,13.41-9.19,7.2-3.15,15.75-2.25,19.8,2.7,4.33,5.28,13.89-2.22,19.63.14,4.65,1.91,10.52,10.84,10.52,16.06,0,7.71-5.14,24.34-13.5,27-9.9,3.15-11.7,7.65-11.7,11.7,0,5.69-18.29,2.15-14.91,11.61,1.92,5.39,9,9.57,13.82,11.89.76.37,9.44,4.4,10.09,3.49-1.83,2.53-3.83,4.98-5.98,7.25-1.48,1.56-3.19,3.65-5.13,4.66-2.56,1.33-6.73-.88-7.54,2.65-.84,3.7,5.28,9.01,8,10.78,5.64,3.66,11.68,2.93,16.97-1.04,7.2-5.4,16.2-13.5,29.25-4.95s18.45,29.7,13.95,31.05-14.85.9-26.55-10.8c-10.87-10.87-35.7,9.81-25.08,20.45,4.5,4.51,10.78,3.9,16.08,6.55,3,1.5,4.42,5.9,3.95,9.04-.68,4.56-4.58,6.05-8.5,7.77-1.52.66-3.15,1.25-4.8,1.08-4.45-.47-17.12-23.29-20.36-7.09-2.25,11.25-.45,16.65-.45,16.65,0,0-9.45-2.25-13.05,2.7-3.86,5.31,3.36,12.87,7.07,16.08,1.59,1.37,5.02,2.77,5.28,4.89.34,2.74-3.66,4.78-2.9,7.83,1.25,5.03,4.92,7.51,9.98,7.24,4.72-.26,8.71-4.12,7.78,2.53-.89,6.32-6.91,15.34-12.25,18.03-6.99,3.52.15,12.61,3.95,14.95,11.7,7.2,9.9,24.3,3.15,22.05"/>
      <path class="cls-1" d="M12.55,181.07c1.49,5.07,2.55,10.3,3.26,15.53,1.27,9.36.11,18.31-.25,27.67-.24,6.08.4,12.46,3.64,17.62,4.24,6.75,9.73,11.19,11.81,19.28s1.8,22.95,7.43,21.15,1.8-11.02,0-16.87c-1.16-3.76,3.59.91,4.66,1.6,1.77,1.15,3.8,2.24,5.97,2.28,2.75.06,5.18-1.75,7.64.49.89.81,1.49,1.95,2.51,2.59,1.3.81,3.04.61,4.39-.13,2-1.1,4.64-7.26,7.29-5.21,3.16,2.44,4.71,6.39,5.81,10.23,1.26,4.37,2.03,9.92,6.06,12.67,4.94,3.37-2.01,10.78-3.59,11.02-1.8.27-3.49.74-5.11-.44-1.12-.82-1.81-2.21-1.78-3.6-2.58,3.88-1.63,11.89-1.24,16.28.48,5.41,1.35,10.23,5.06,14.46,2.81,3.2,6.46,5.55,10.28,7.41,2.52,1.23,5.19,2.28,7.98,2.53,7.61.68,14.14-6.44,14.02-13.83-.13-7.62-6.05-13.06-8.79-19.73-1.94-4.73-2.66-12.24,4.1-12.99,2.41-.27,4.77-.19,6.88,1.15,5.27,3.35-2.02-8.76-2.43-9.64-.65-1.39-.95-3.07-.24-4.43.39-.76,1.06-1.35,1.71-1.9,2.57-2.16,12.48-10.98,15.23-4.98,2.44,5.32-.16,13.1-3.28,17.57-.29.42-.61.84-.73,1.34-.12.48-.06.99.03,1.47,1.07,5.94,5.19,9.59,8.14,14.5,2.1,3.5,3.74,7.43,5.68,11.04,1.39,2.59,7.85,16.85,12.44,14.38,5.85-3.15,9.68-9,15.97-8.33"/>
      <path class="cls-1" d="M182.12,40s-11.25,5.25-5.85,6.75,8.7-1.2,9.6-2.25,1.65-4.05-3.75-4.5Z"/>
      <path class="cls-1" d="M276.92,79.75c-9.45.3-18.75-.15-21.15-1.95s-10.8-5.25-19.2,2.7-15,27.6-12,35.1,15,26.55,34.35,28.5,26.4-1.8,30.45-4.05,18.45-10.65,17.7-13.65-7.95-11.25-7.05-24.15"/>
      <path class="cls-1" d="M292.07,83.5c-1.65,3.75-4.35,8.85,6.6,14.85"/>
      <path class="cls-1" d="M319.82,212.8s.45,15.75.45,18.67c0,20.94,11.7,14.85,12.6,14.85s3.82-6.52,13.5,4.27-1.35,29.7-8.1,38.92-19.58-2.02-24.98-8.55-5.4-14.85-2.25-21.6,1.12-15.52-8.77-15.3-17.33-10.35-11.48-15.3,8.77-15.3,8.55-15.97"/>
      <path class="cls-1" d="M298.54,84.94s8.94,3.26,3.66,11.64"/>
      <ellipse class="cls-1" cx="247" cy="43.6" rx="7.57" ry="3.23"/>
      <ellipse class="cls-1" cx="248.5" cy="57.25" rx="4.42" ry="2.77"/>
      <ellipse class="cls-1" cx="296.72" cy="260.8" rx="5.4" ry="5.92"/>
      <ellipse class="cls-1" cx="295.15" cy="278.57" rx="4.58" ry="6.45"/>
      <ellipse class="cls-1" cx="320.5" cy="319.9" rx="5.62" ry="2.93"/>
      <ellipse class="cls-1" cx="258.85" cy="365.42" rx="7.28" ry="6.15" transform="translate(-109.37 110.57) rotate(-20)"/>
      <ellipse class="cls-1" cx="208.45" cy="391.07" rx="6.97" ry="5.25"/>
      <ellipse class="cls-1" cx="259.3" cy="383.12" rx="5.47" ry="3.15" transform="translate(-109.68 104.07) rotate(-18.81)"/>
      <ellipse class="cls-1" cx="295.67" cy="389.2" rx="5.25" ry="3.68"/>
      <ellipse class="cls-1" cx="291.47" cy="402.55" rx="4.13" ry="3.15" transform="translate(-196.83 495.09) rotate(-64.82)"/>
    </g>
  </g>
</svg>