<?xml version="1.0" encoding="UTF-8"?>
<svg id="Layer_2" data-name="Layer 2" xmlns="http://www.w3.org/2000/svg" viewBox="0 0 329.07 408.93">
  <defs>
    <style>
      .cls-1 {
        stroke-miterlimit: 10;
      }

      .cls-1, .cls-2 {
        fill: none;
        stroke: #000;
        stroke-width: 2px;
      }
    </style>
  </defs>
  <g id="Layer_4" data-name="Layer 4">
    <g>
      <path class="cls-2" d="M84.83,131.81s31.2-39,42-72.6S137.63.41,144.83,1.01s10.8,4.8,19.2,22.8c8.4,18,32.4,43.2,36.6,48s32.4,39,31.8,53.4-8.4,16.8-18,13.2-19.8-3-27.6,3.6-24.6,8.4-28.2,3.6-13.8-17.4-22.8-14.4-16.2,9-26.4,10.2-22.8,3-25.2-1.2.6-8.4.6-8.4Z"/>
      <path class="cls-2" d="M93.83,142.61s-9.6,22.2-19.8,31.8c-10.2,9.6-19.2,24.6-22.8,32.4-2.68,5.81-4.84,15.87,1.2,20.4,4.8,3.6,18.6,7.2,33.6-1.8s22.2-3.6,22.2-3.6c0,0,10.19,3.6,16.19,5.4,7.03,2.11,17.7.35,24.36-2.13,3.8-1.41,7.26-3.59,10.99-5.17,12.55-5.3,20.51,4.59,32.46,5.51,7.8.6,9-1.8,21.6-4.8s33.6,10.2,45,4.2,22.2-16.2,20.4-24c-1.8-7.8-.6-17.4-13.2-30-12.6-12.6-36.6-35.4-36.6-35.4"/>
      <path class="cls-2" d="M69.23,230.81c-8.83,13.28-18.25,23.76-30.42,34.01-13.31,11.22-27.38,22.81-34.53,39.16-2.35,5.38-3.88,11.31-3.07,17.13,3.04,22.06,34.26,26.83,51.21,23.1,12.27-2.7,24.91-3.93,37.43-2.42,12.87,1.55,24.68,6.87,37.57,8.42,19.08,2.29,38.24-.05,57.32-1.2,8.73-.52,18.18.48,26.75-1.25,15.43-3.11,26.83-16.82,43.18-16.84,18.95-.02,80.64,5.16,72.69-29.69-3.62-15.88-19.77-31.49-30.18-43.53-10.86-12.55-24.1-22.58-35.95-34.1"/>
      <path class="cls-1" d="M127.43,350.21s3.38,31.28,4.11,45.94c.19,3.88,2.88,7.19,6.65,8.15,10.26,2.59,30.73,6.32,48.26.7,3.13-1,5.48-3.61,6.08-6.84l9.29-49.75"/>
    </g>
  </g>
</svg>