<?xml version="1.0" encoding="UTF-8"?>
<svg id="Layer_2" data-name="Layer 2" xmlns="http://www.w3.org/2000/svg" viewBox="0 0 391.6 491.1">
  <defs>
    <style>
      .cls-1 {
        fill: #000;
        stroke-width: 0px;
      }
    </style>
  </defs>
  <g id="Base_Images" data-name="Base Images">
    <path class="cls-1" d="M114.38,0c5.54,4.47,11.12,8.89,16.61,13.42,32.32,26.61,64.63,53.24,96.93,79.89,1.1.9,2.06,2.01,2.93,3.15,7.36,9.66,14.7,19.34,22.03,29.02,1.92,2.54,1.81,3.19-.78,5.14-11.39,8.59-22.8,17.15-34.13,25.81-1.5,1.15-2.9,2.64-3.85,4.27-3.18,5.47-7.21,10.55-8.61,16.91-1.03,4.69-1.96,9.41-3,14.42.74-.13,1.17-.11,1.49-.28,3.61-1.95,6.84-.72,10.26.82,32.76,14.74,65.58,29.37,98.34,44.13,1.63.74,3.26,2.17,4.18,3.7,24.56,40.78,49.03,81.61,73.51,122.43.44.73,1.14,1.42,1.25,2.2.21,1.6.09,2.93-1.82,3.95-52,27.7-103.92,55.57-155.98,83.16-4.92,2.61-10.73,3.59-16.17,5.18-38.2,11.16-76.42,22.26-114.61,33.45-2.31.68-3.48.48-4.33-2.04-27.25-80.82-54.56-161.62-81.86-242.42-5.45-16.13-10.94-32.24-16.29-48.4-.52-1.58-.62-3.53-.22-5.14,7.92-32.33,15.94-64.64,23.98-96.95.25-1.01.85-2.05,1.56-2.81,19.58-20.75,39.2-41.47,58.8-62.2,9.28-9.81,18.54-19.63,27.81-29.44.46-.49.98-.92,1.47-1.37.17,0,.34,0,.51,0ZM208.76,192.22c-.62.14-.87.18-1.11.25-34.18,10.32-68.37,20.63-102.54,31.01-2.11.64-3.11.4-4.05-1.77-7.62-17.56-15.33-35.07-23.13-52.55-1.24-2.77-1.9-5.5-1.9-8.54,0-5.94-.07-11.9-.54-17.81-.34-4.32.15-8.38,1.52-12.45.89-2.64,1.41-5.4,2.23-8.07,1.5-4.91,2.38-10.02,5.34-14.45,2.39-3.58,4.33-7.47,6.51-11.2.55-.94,1.17-1.89,1.95-2.65,11.98-11.68,24.01-23.31,35.98-35,3.76-3.67,7.37-7.48,11.14-11.33-8.75-14.98-17.52-29.99-26.38-45.16-10.43,11.03-20.56,21.78-30.72,32.5-17.4,18.37-34.83,36.72-52.19,55.12-1.89,2-4.37,4.09-4.99,6.54-8.2,32.16-16.13,64.38-24.06,96.61-.3,1.22-.15,2.71.25,3.92,7.42,22.15,14.9,44.28,22.37,66.41,24.11,71.36,48.23,142.72,72.35,214.08,1.28,3.8,2.6,7.59,3.95,11.52,67.8-38.81,135.3-77.45,202.9-116.15-31.69-60.39-63.25-120.55-94.87-180.81ZM389.38,364.84c-.69-1.2-1.14-2.01-1.61-2.8-23.95-39.94-47.91-79.87-71.81-119.84-1.23-2.06-2.7-3.45-4.91-4.44-31.95-14.23-63.85-28.54-95.78-42.83-.78-.35-1.61-.61-2.81-1.07.68,1.35,1.11,2.26,1.58,3.16,7.96,15.15,15.93,30.3,23.9,45.45,22.4,42.6,44.8,85.2,67.19,127.81.61,1.16,1.21,1.74,2.72,1.6,9.12-.84,18.26-1.52,27.39-2.3,13.27-1.13,26.54-2.3,39.81-3.46,4.63-.4,9.26-.84,14.34-1.3ZM385.56,369.12c-.04-.16-.09-.32-.13-.48-1.24.06-2.47.07-3.71.18-8.87.78-17.74,1.62-26.62,2.38-14.88,1.27-29.76,2.46-44.64,3.73-2.85.24-5.53.76-8.18,2.27-58.07,33-116.2,65.9-174.32,98.82-6.24,3.54-12.47,7.1-18.71,10.64,1.1.08,2.06-.16,3.01-.44,35.34-10.3,70.68-20.59,106.01-30.93,5.26-1.54,10.82-2.67,15.6-5.2,46.58-24.66,93.03-49.57,139.51-74.42,4.07-2.17,8.12-4.37,12.18-6.56ZM251.9,128.54c-36.97-26.55-73.59-52.85-110.26-79.19-15.74,15.31-31.31,30.45-47.08,45.78,15.89,8.11,31.54,16.1,46.89,23.94,4.65-3.97,8.9-8.02,13.58-11.51,6.3-4.71,13.69-4.63,20.2-.38,7.74,5.06,15.5,10.09,23.25,15.14,2.66,1.73,3.48,3.6,2.04,6.47-1.15,2.28-2.8,4.45-4.68,6.18-2.79,2.56-5.98,4.69-9.01,7.01.2.26.28.44.42.51,8.79,4.53,17.58,9.09,26.42,13.53.59.3,1.78,0,2.38-.43,4.59-3.35,9.11-6.8,13.64-10.23,7.3-5.52,14.6-11.04,22.22-16.8ZM77.9,163.96c1.18.43,1.96.75,2.76,1.01,11.99,3.92,23.99,7.79,35.96,11.74,14.77,4.87,29.52,9.79,44.28,14.69,5.59,1.85,11.21,3.61,16.75,5.61,2.21.8,4.15.82,6.37.06,4.56-1.56,9.17-3.05,13.86-4.15,2.68-.63,3.67-1.94,3.53-4.54-.16-.13-.33-.35-.55-.44-10.83-4.4-21.66-8.78-32.49-13.15-.42-.17-1.04-.3-1.39-.11-2.9,1.56-5.64.56-8.31-.53-7.92-3.24-15.83-6.51-23.69-9.89-1.59-.68-3.35-1.61-4.32-2.94-2.33-3.22-5.82-4.21-9.16-5.56-1.55-.63-3.26-.88-4.8-1.52-6.39-2.68-12.73-5.49-19.13-8.16-5.81-2.43-11.66-4.75-17.5-7.1-.76-.31-1.54-.56-2.16-.78v25.77ZM79.34,166.49c8.13,18.42,16.13,36.56,24.19,54.83,24.75-7.47,49.27-14.86,73.79-22.26l-.08-.58c-32.51-10.62-65.02-21.24-97.9-31.98ZM118.86,5.7c-.11.13-.22.26-.33.39,7.84,13.38,15.66,26.77,23.54,40.13.49.83,1.39,1.47,2.2,2.06,34.1,24.49,68.22,48.97,102.34,73.44.35.25.78.41,1.17.61-1.95-3.22-4.13-6.12-6.33-9-7.14-9.34-14.06-18.7-23.47-26.22-25.85-20.66-51.2-41.96-76.75-63.01-7.45-6.14-14.91-12.26-22.37-18.39ZM83.84,114c-.27.72-.47,1.16-.61,1.63-1.71,6.11-3.31,12.26-5.18,18.32-.59,1.9-.02,2.51,1.59,3.15,11.09,4.42,22.15,8.92,33.22,13.39,4.49,1.81,8.97,3.63,13.02,5.27-.11-3.55-.75-7.06-.16-10.35.59-3.26,2.44-6.3,3.76-9.47-14.96-7.19-30.16-14.5-45.65-21.94ZM140.84,120.8c-5.57-2.89-10.77-5.67-16.03-8.32-5.13-2.58-10.38-4.94-15.49-7.56-4.63-2.37-9.12-5.02-13.75-7.4-.72-.37-2.42-.27-2.71.21-2.94,4.74-5.67,9.6-8.57,14.6,15.74,7.52,31.27,14.94,46.85,22.38,3.3-4.73,6.44-9.24,9.7-13.91ZM168.2,172.84c11.39,4.58,22.45,9.02,33.41,13.42,1.08-4.17,1.93-8.14,3.18-11.99.61-1.87.08-2.55-1.48-3.28-4.84-2.23-9.64-4.57-14.45-6.86-4.02-1.91-8.04-3.81-12.18-5.77-2.8,4.79-5.45,9.31-8.48,14.48ZM213.66,157.91c-9.58-4.9-18.87-9.65-28.27-14.45-2.73,4.68-5.27,9.01-7.86,13.46,9.71,4.58,19.14,9.03,28.67,13.54,2.48-4.17,4.86-8.16,7.46-12.54Z"/>
  </g>
</svg>