<?xml version="1.0" encoding="UTF-8"?>
<svg id="Layer_2" data-name="Layer 2" xmlns="http://www.w3.org/2000/svg" viewBox="0 0 377.72 472.25">
  <defs>
    <style>
      .cls-1 {
        fill: none;
        stroke: #231f20;
        stroke-linecap: round;
        stroke-linejoin: round;
        stroke-width: 1.92px;
      }

      .cls-2 {
        fill: #231f20;
        stroke-width: 0px;
      }
    </style>
  </defs>
  <g id="Layer_3" data-name="Layer 3">
    <g>
      <polygon class="cls-1" points="110.47 .96 26.32 89.72 .96 188.29 98.37 471.29 223.45 433.83 376.76 351.98 303.56 227.48 202.7 183.68 99.52 213.65 74.74 158.31 74.16 130.65 81.08 106.44 90.88 90.3 136.99 44.19 110.47 .96"/>
      <polygon class="cls-1" points="219.99 89.15 243.62 120.85 136.99 44.19 110.47 .96 219.99 89.15"/>
      <polyline class="cls-1" points="194.05 184.83 195.2 179.06 199.24 163.5 207.88 150.24 243.62 120.85"/>
      <polyline class="cls-1" points="98.37 471.29 293.76 357.17 202.7 183.68"/>
      <line class="cls-1" x1="376.76" y1="351.98" x2="293.76" y2="357.17"/>
      <line class="cls-1" x1="74.74" y1="158.31" x2="176.18" y2="191.17"/>
      <line class="cls-1" x1="74.16" y1="130.65" x2="195.2" y2="179.06"/>
      <line class="cls-1" x1="81.08" y1="106.44" x2="199.24" y2="163.5"/>
      <line class="cls-1" x1="90.88" y1="90.3" x2="207.88" y2="150.24"/>
      <path class="cls-2" d="M128.49,155.7c-3.98-2.58-6.45-5.83-7.29-11.69-.83-5.74,2.76-10.11,5.42-14.88l10.37-14.91,12.1-11.02s7.35-8,17.94-2.38,24.21,15.13,24.21,15.13c0,0,6.92,3.03.65,9.08s-12.1,10.59-12.1,10.59l-7.78,14.05-9.08,14.91s-2.16,4.76-6.7,3.03c-7.65-2.91-15.32-5.8-22.76-9.24-1.86-.86-3.52-1.72-4.98-2.66Z"/>
    </g>
  </g>
</svg>