<?xml version="1.0" encoding="UTF-8"?>
<svg id="Layer_2" data-name="Layer 2" xmlns="http://www.w3.org/2000/svg" viewBox="0 0 282.2 107.95">
  <defs>
    <style>
      .cls-1 {
        fill: #333;
        stroke-width: 0px;
      }
    </style>
  </defs>
  <g id="Layer_1-2" data-name="Layer 1">
    <g>
      <path class="cls-1" d="M0,104.79c4.35-1.45,5.27-5.4,5.27-14.89V20.03c0-7.78-1.98-9.09-5.27-10.54v-1.84L17.4,0l1.32,1.05v50.61c7.25-5.93,16.74-11.86,27.02-11.86,12.13,0,20.3,6.33,20.3,21.75v28.34c0,9.49.92,13.44,5.27,14.89v1.84h-23.99v-1.84c4.35-1.45,5.27-5.4,5.27-14.89v-25.97c0-11.86-5.14-18.85-14.89-18.85-6.19,0-11.86,3.03-18.98,8.83v35.98c0,9.49.92,13.44,5.27,14.89v1.84H0v-1.84Z"/>
      <path class="cls-1" d="M78.03,76.18c0-22.41,17.53-36.38,34.67-36.38s27.28,12.26,27.28,23.72h-49.95c-.13,1.45-.26,2.77-.26,4.22,0,17.27,10.54,29.52,27.28,29.52,9.75,0,17.27-4.22,22.8-10.41l1.19,1.32c-6.06,9.23-16.48,19.77-31.76,19.77s-31.24-10.41-31.24-31.77ZM126.67,61.68c-1.71-10.81-8.96-19.38-18.06-19.51-11.2-.13-16.87,9.23-18.45,19.51h36.51Z"/>
      <path class="cls-1" d="M146.97,104.79c4.35-1.45,5.27-5.4,5.27-14.89V20.03c0-7.78-1.98-9.09-5.27-10.54v-1.84l17.4-7.64,1.32,1.05v88.84c0,9.49.92,13.44,5.27,14.89v1.84h-23.99v-1.84Z"/>
      <path class="cls-1" d="M179.39,104.79c4.35-1.45,5.27-5.4,5.27-14.89V20.03c0-7.78-1.98-9.09-5.27-10.54v-1.84l17.4-7.64,1.32,1.05v88.84c0,9.49.92,13.44,5.27,14.89v1.84h-23.99v-1.84Z"/>
      <path class="cls-1" d="M211.95,75.39c0-21.35,17.13-35.59,35.19-35.59,16.34,0,35.06,9.62,35.06,32.82s-19.51,35.32-35.06,35.32c-17.13,0-35.19-10.15-35.19-32.56ZM268.89,82.64c0-16.74-11.47-41.91-28.47-40.2-11.47,1.19-15.29,11.73-15.29,23.07,0,15.55,9.23,39.54,26.62,39.54,12.92,0,17.13-11.2,17.13-22.41Z"/>
    </g>
  </g>
</svg>