<?xml version="1.0" encoding="UTF-8"?>
<svg id="Layer_2" data-name="Layer 2" xmlns="http://www.w3.org/2000/svg" viewBox="0 0 226.19 168.6">
  <defs>
    <style>
      .cls-1 {
        fill: none;
      }

      .cls-1, .cls-2, .cls-3, .cls-4, .cls-5 {
        stroke: #010101;
        stroke-linecap: round;
        stroke-linejoin: round;
        stroke-width: .66px;
      }

      .cls-2 {
        fill: #4d4d4e;
      }

      .cls-3 {
        fill: #cccccb;
      }

      .cls-6 {
        fill: #fff;
        stroke-width: 0px;
      }

      .cls-4 {
        fill: #999;
      }

      .cls-5 {
        fill: #191919;
      }
    </style>
  </defs>
  <g id="Layer_1-2" data-name="Layer 1">
    <polygon class="cls-5" points="225.86 77.15 114.63 69.57 .33 86.19 112.88 108.22 225.86 77.15"/>
    <polygon class="cls-4" points="162.7 94.3 108.69 .33 66.81 98.66 104.48 106.53 108.69 .33 130.73 103.4 162.7 94.3"/>
    <polygon class="cls-2" points="103.96 112.05 132.17 109.1 108.32 .92 103.96 112.05"/>
    <path class="cls-3" d="M112.89,108.21l-3.46,3.27-50.01,47.32c-6.81-2.11-12.8-4.35-17.84-6.41L.34,86.2l103.84,20.32,8.71,1.69Z"/>
    <path class="cls-3" d="M225.86,77.15l-30.37,73.84-.24.55c-11.29,5.36-22.51,9.18-33.49,11.85l-.42-.47-46.08-52.04-2.38-2.67,17.81-4.91.18-.05,9.5-2.59.55-.16,84.92-23.35Z"/>
    <path class="cls-2" d="M161.76,163.39c-30.06,7.23-58.27,5.49-81.23.82-.98-.18-1.95-.4-2.93-.61-6.6-1.37-12.72-3.01-18.29-4.7l.11-.11,50.01-47.32,3.46-3.27,2.38,2.67,46.08,52.04.42.47Z"/>
    <path class="cls-6" d="M208.47,144.34l-.05.29c-4.41,2.56-8.79,4.86-13.17,6.91-11.29,5.36-22.51,9.18-33.49,11.85-30.06,7.23-58.27,5.49-81.23.82,22.72,4.43,50.69,5.94,80.8-1.29,11.14-2.69,22.56-6.57,34.15-11.93,4.3-2.01,8.63-4.22,12.98-6.65Z"/>
    <path class="cls-1" d="M208.94,144.34c-.18.11-.34.21-.53.29-4.41,2.56-8.79,4.86-13.17,6.91-11.29,5.36-22.51,9.18-33.49,11.85-30.06,7.23-58.27,5.49-81.23.82-.98-.18-1.95-.4-2.93-.61-6.54-1.43-12.64-3.09-18.18-4.8-6.81-2.11-12.8-4.35-17.84-6.41-11.11-4.57-17.5-8.34-17.5-8.34"/>
  </g>
</svg>