<?xml version="1.0" encoding="UTF-8"?>
<svg id="Layer_1" data-name="Layer 1" xmlns="http://www.w3.org/2000/svg" version="1.1" viewBox="0 0 500 500">
  <defs>
    <style>
      .cls-1 {
        fill: #49b44b;
        stroke-width: 0px;
      }
    </style>
  </defs>
  <path class="cls-1" d="M271.3,222.9c-29.1,3.5-53.1,13.3-72,29.3-18.9,16-28.3,34.9-28.3,56.6s8.1,42.6,24.2,56.8c16.1,14.2,37.5,21.3,64,21.3s43-6.6,59-19.7c16-13.1,24-29.1,24-48s-2.8-21.4-8.4-30.7c-5.6-9.3-13.4-16.7-23.5-22.3-10.1-5.6-21.3-8.4-33.8-8.4s-22.3,2.2-32.4,6.7c-10.1,4.5-18.2,10.7-24.5,18.7-6.2,8-9.4,17-9.4,26.9s4.1,20.9,12.2,29,17.5,12.2,28.1,12.2,11.5-2.4,11.5-7.2-.3-3-1-4.3c-11.5-.6-20.4-3.5-26.6-8.6-6.2-5.1-9.4-12-9.4-20.6s4.7-19.9,14.2-27.1c9.4-7.2,21.5-10.8,36.2-10.8s26.9,4.3,36.5,13c9.6,8.6,14.4,19.7,14.4,33.1s-6.4,27.7-19.2,37.9c-12.8,10.2-28.8,15.3-48,15.3s-38.5-5.7-52-17c-13.6-11.3-20.4-26-20.4-43.9s6.8-33.5,20.4-46.8c13.6-13.3,32.5-22.5,56.8-27.6,13.7-2.6,28.5-4.8,44.1-6.7,40.3-4.8,69.6-12.4,88-22.8,18.4-10.4,27.6-24.4,27.6-42s-4-21.8-12-30c-8-8.2-17.6-12.2-28.8-12.2s-12,2.2-12,6.7.2,1.4.5,2.4c.3,1,.6,1.8,1,2.4,11.2.3,19.9,3.4,26.1,9.1,6.2,5.8,9.4,13.4,9.4,23s-4.2,18.6-12.7,25.2c-8.5,6.6-19.3,9.8-32.4,9.8s-26.1-4-35.3-12c-9.1-8-13.7-18.2-13.7-30.7s6.2-28.9,18.7-38.9c12.5-9.9,28.8-14.9,48.9-14.9s34.7,5.5,46.5,16.5c11.8,11,17.7,25.5,17.7,43.4s-11.4,42-34.1,55.9c-22.7,13.9-56,22.6-99.8,26.1,16,5.1,28.9,14.3,38.6,27.6,9.8,13.3,14.6,28.4,14.6,45.3s-5.9,35.7-17.7,50.4c-11.8,14.7-28.8,26.2-50.8,34.5-22.1,8.3-47.8,12.5-77.2,12.5s-61.8-4.3-86.6-13c-24.8-8.6-44.1-21.1-58-37.4-13.9-16.3-20.9-35.5-20.9-57.6s8.4-41.5,25.2-57.3c16.8-15.8,39.9-26.1,69.3-30.9-20.1-2.6-36.9-10.1-50.4-22.5-13.4-12.5-20.1-26.7-20.1-42.7s11.1-40.3,33.3-53.7c22.2-13.4,51.9-20.1,89-20.1s57.9,5.4,76.7,16.1c18.9,10.7,28.3,25.2,28.3,43.4s-5.2,27.3-15.6,36c-10.4,8.6-24.9,13-43.4,13s-29.6-3.7-39.8-11c-10.2-7.4-15.3-16.8-15.3-28.3s3.8-17.7,11.3-23.5c7.5-5.8,18-8.8,31.4-9.1,1.9-2.2,2.9-4.6,2.9-7.2-.3-3.8-4-5.8-11-5.8-14.1,0-26,4.6-35.7,13.7-9.8,9.1-14.6,20.2-14.6,33.3s7.2,28.5,21.6,37.7,34.2,13.7,59.5,13.7h14.9c3.8,0,5.8,1.6,5.8,4.8v9.6c0,1.6-.4,2.6-1.2,3.1-.8.5-2.3.9-4.6,1.2Z"/>
</svg>