<?xml version="1.0" encoding="UTF-8"?>
<svg id="Layer_2" data-name="Layer 2" xmlns="http://www.w3.org/2000/svg" viewBox="0 0 472.83 404.83">
  <defs>
    <style>
      .cls-1 {
        fill: none;
        stroke: #231f20;
        stroke-width: 2px;
      }
    </style>
  </defs>
  <g id="Layer_3" data-name="Layer 3">
    <path class="cls-1" d="M262.06,169.85c-34.97,4.23-63.78,15.95-86.44,35.15-22.67,19.22-34,41.88-34,68,0,28.44,9.7,51.2,29.1,68.29,19.4,17.1,45.04,25.65,76.93,25.65,28.04,0,51.67-7.87,70.89-23.63,19.21-15.75,28.81-34.96,28.81-57.63,0-13.44-3.37-25.74-10.09-36.88-6.73-11.14-16.14-20.07-28.24-26.8-12.1-6.72-25.64-10.08-40.63-10.08-13.83,0-26.8,2.69-38.9,8.07-12.1,5.39-21.9,12.88-29.39,22.48-7.49,9.61-11.24,20.37-11.24,32.27,0,13.45,4.9,25.07,14.7,34.87,9.8,9.8,21.04,14.7,33.71,14.7,9.22,0,13.83-2.88,13.83-8.64,0-1.92-.39-3.65-1.15-5.19-13.83-.77-24.49-4.22-31.98-10.37-7.49-6.14-11.24-14.41-11.24-24.78,0-13.06,5.67-23.92,17-32.56,11.33-8.64,25.83-12.97,43.51-12.97s32.27,5.19,43.8,15.56c11.53,10.37,17.29,23.63,17.29,39.76,0,18.06-7.69,33.24-23.05,45.53-15.37,12.3-34.58,18.44-57.63,18.44-25.36,0-46.2-6.82-62.53-20.46-16.33-13.63-24.49-31.21-24.49-52.73s8.16-40.24,24.49-56.19c16.33-15.94,39.09-26.99,68.29-33.14,16.51-3.07,34.19-5.76,53.02-8.07,48.41-5.76,83.65-14.88,105.75-27.37,22.09-12.48,33.14-29.29,33.14-50.43,0-14.21-4.81-26.22-14.41-36.02-9.61-9.8-21.13-14.7-34.58-14.7-9.61,0-14.41,2.69-14.41,8.07,0,.77.19,1.73.58,2.88.38,1.15.77,2.12,1.15,2.88,13.44.39,23.92,4.03,31.41,10.95,7.49,6.92,11.24,16.14,11.24,27.66,0,12.3-5.1,22.39-15.27,30.26-10.18,7.88-23.15,11.81-38.9,11.81-17.29,0-31.41-4.8-42.36-14.41-10.95-9.6-16.42-21.9-16.42-36.88,0-19.21,7.49-34.77,22.48-46.68,14.98-11.9,34.58-17.87,58.78-17.87s41.68,6.63,55.9,19.88c14.21,13.26,21.32,30.64,21.32,52.15,0,28.05-13.64,50.43-40.92,67.14-27.28,16.71-67.24,27.19-119.87,31.41,19.21,6.15,34.67,17.2,46.39,33.14,11.72,15.95,17.58,34.1,17.58,54.46,0,22.67-7.11,42.84-21.32,60.51-14.22,17.68-34.58,31.51-61.09,41.49-26.51,9.99-57.44,14.98-92.78,14.98-39.58,0-74.25-5.19-104.02-15.56-29.78-10.37-53.02-25.36-69.73-44.95-16.71-19.59-25.07-42.64-25.07-69.15s10.09-49.85,30.26-68.87c20.17-19.02,47.92-31.41,83.27-37.17-24.2-3.07-44.37-12.1-60.51-27.09-16.14-14.98-24.2-32.07-24.2-51.29,0-26.89,13.34-48.41,40.05-64.54C96.57,9.07,132.2,1,176.77,1c38.8,0,69.53,6.44,92.21,19.31,22.67,12.88,34,30.26,34,52.15,0,18.44-6.25,32.85-18.73,43.22-12.49,10.37-29.88,15.56-52.15,15.56-19.59,0-35.54-4.41-47.83-13.25-12.3-8.83-18.44-20.17-18.44-34,0-11.9,4.51-21.32,13.54-28.24,9.02-6.92,21.61-10.56,37.75-10.95,2.3-2.68,3.46-5.56,3.46-8.64-.39-4.61-4.81-6.92-13.26-6.92-16.91,0-31.22,5.47-42.93,16.42-11.72,10.95-17.58,24.3-17.58,40.05,0,19.22,8.64,34.29,25.93,45.24,17.29,10.95,41.11,16.42,71.46,16.42h17.87c4.61,0,6.91,1.93,6.91,5.76v11.53c0,1.93-.49,3.17-1.44,3.75-.96.58-2.79,1.06-5.47,1.44Z"/>
  </g>
</svg>